<svg   xmlns="http://www.w3.org/2000/svg" width="80" height="80" viewBox="0 0 80 80" fill="none">
<path d="M0 0H60C71.0457 0 80 8.95431 80 20V60C80 71.0457 71.0457 80 60 80H0V0Z" fill="#7C5DFA"/>
<mask id="mask0_0_4262" style="mask-type:luminance" maskUnits="userSpaceOnUse" x="0" y="0" width="80" height="80">
<path d="M0 0H60C71.0457 0 80 8.95431 80 20V60C80 71.0457 71.0457 80 60 80H0V0Z" fill="white"/>
</mask>
<g mask="url(#mask0_0_4262)">
<path d="M80 40.3887H20C8.95431 40.3887 0 49.343 0 60.3887V100.389C0 111.434 8.95431 120.389 20 120.389H80V40.3887Z" fill="#9277FF"/>
</g>
</svg>